<?xml version="1.0" encoding="utf-8"?>
<!-- Generator: Adobe Illustrator 19.0.1, SVG Export Plug-In . SVG Version: 6.00 Build 0)  -->
<svg version="1.1" id="Layer_1" xmlns="http://www.w3.org/2000/svg" xmlns:xlink="http://www.w3.org/1999/xlink" x="0px" y="0px"
	 viewBox="-350 261 258 40" style="enable-background:new -350 261 258 40;" xml:space="preserve">
<style type="text/css">
	.st0{display:none;}
	.st1{fill:#9ACA0F;}
	.st2{fill:#FFFFFF;}
	.st3{fill:#72368D;}
	.st4{fill:#90BF09;}
	.st5{fill:none;}
	.st6{enable-background:new    ;}
</style>
<g id="bg" class="st0">
</g>
<g id="logo_1_">
	<path class="st1" d="M-324.1,296.9H-344c-3.3,0-6-2.7-6-6V271c0-3.3,2.7-6,6-6h19.9c3.3,0,6,2.7,6,6v19.9
		C-318.1,294.2-320.8,296.9-324.1,296.9z"/>
	<path class="st2" d="M-335.8,291l5.3-7.8h5.5c1,0,2-1,2-2s-1-2-2-2h-5.5l-5.3-7.8c-0.1-0.1-0.2-0.2-0.3-0.2h-1.5
		c-0.1,0-0.2,0.1-0.3,0.1c-0.1,0.1-0.1,0.2-0.1,0.3l3,7.5h-6l-2.7-2.9c-0.1-0.1-0.2-0.1-0.3-0.1h-0.7c-0.1,0-0.2,0.1-0.3,0.2
		c-0.1,0.1-0.1,0.2-0.1,0.3l1.5,4.5l-1.5,4.5c0,0,0,0.1,0,0.1c0,0.1,0,0.2,0.1,0.2c0.1,0.1,0.2,0.2,0.3,0.2h0.7c0.1,0,0.2,0,0.3-0.1
		l2.6-2.9h6l-3,7.5c0,0.1,0,0.2,0.1,0.3c0.1,0.1,0.2,0.1,0.3,0.1h1.5C-336,291.1-335.9,291.1-335.8,291L-335.8,291z"/>
	<g>
		<path class="st3" d="M-298.1,271.4c1.5,1.2,2.2,2.8,2.2,4.6c0,1.1-0.3,2.1-0.9,2.9c-0.6,0.8-1.3,1.5-2.2,1.8
			c1.2,0.3,2.3,0.9,3,1.8c0.8,0.9,1.2,2,1.2,3.3c0,2.1-0.6,3.7-1.7,4.9c-1.1,1.2-2.7,1.9-4.6,2.1c-1.1,0.1-3.1,0.2-6,0.2l-2.8,0
			c-0.7,0-1.2-0.2-1.6-0.6c-0.4-0.4-0.6-1-0.7-1.8l0-4.9l0-5.7c0-0.9,0-2.2-0.1-3.9c0-1.7-0.1-3-0.1-3.9c0-0.6,0.2-1.2,0.5-1.6
			c0.3-0.4,0.8-0.7,1.4-0.8c1.1-0.1,3.2-0.2,6.5-0.2C-301.4,269.6-299.5,270.2-298.1,271.4z M-301.3,274.4c-0.6-0.5-1.4-0.7-2.4-0.7
			h-1h-1.5h-1v5.9c1.1,0,2.3,0,3.6-0.1c1,0,1.8-0.3,2.4-0.8c0.6-0.6,0.9-1.3,0.9-2.3C-300.4,275.5-300.7,274.8-301.3,274.4z
			 M-307.2,283.3l0.1,5.7c0.3,0,1.7,0,3.9,0c1.1,0,2-0.3,2.7-0.8s1.1-1.2,1.1-2.2c0-1.9-1.3-2.8-3.9-2.8L-307.2,283.3z"/>
		<path class="st3" d="M-288.3,279.5v5.6c0,2.7,0.9,4,2.6,4c2.2,0,3.3-1.7,3.3-5.1l0-4.7c0-0.8,0.2-1.3,0.7-1.7
			c0.5-0.4,1-0.5,1.7-0.5c1.5,0,2.3,0.7,2.3,2.2c0,0,0,0.3,0,0.9c0,0.6,0,1.2,0,1.9v2.4c0,0.9,0,1.8,0,2.5c0,0.9,0.1,1.8,0.1,2.8
			c0,1,0.1,1.5,0.1,1.6c0,0.6-0.2,1-0.7,1.3c-0.4,0.3-1,0.5-1.6,0.5c-1.2,0-1.9-0.5-2.1-1.4c0-0.1,0-0.3-0.1-0.6s-0.1-0.6-0.1-0.8
			c-1.1,2-2.7,2.9-4.7,2.9c-2.1,0-3.7-0.7-4.7-2c-1-1.3-1.5-3.1-1.5-5.4c0-0.6,0-1.7,0-3.3c0-1.5,0-2.6,0-3.2c0-1.5,0.9-2.3,2.6-2.3
			C-289,277.1-288.3,277.9-288.3,279.5z"/>
		<path class="st3" d="M-259.4,277.6v7.4c0,0.4,0,0.8,0,1.4c0,0.5,0,1.3,0,2.2c0,0.9,0,1.8,0,2.6c0,1.3-0.8,2-2.3,2
			c-1.1,0-1.8-0.4-2-1.3l-0.2-1.2c-1.1,1.7-2.6,2.6-4.7,2.6c-2.3,0-4.2-0.8-5.5-2.3c-1.4-1.5-2-3.3-2-5.4c0-2.4,0.8-4.4,2.3-6
			c1.5-1.6,3.5-2.5,5.8-2.5c1.7,0,3,0.6,3.9,1.8l0-8.3c0-1.6,0.8-2.4,2.3-2.4c0.8,0,1.4,0.2,1.9,0.5c0.4,0.3,0.6,0.9,0.6,1.7
			L-259.4,277.6z M-270.3,288c0.7,0.7,1.5,1.1,2.6,1.1c1.1,0,2-0.4,2.7-1.1c0.7-0.7,1.1-1.7,1.1-2.9c0-1.3-0.3-2.3-1-3
			c-0.7-0.7-1.6-1.1-2.6-1.1c-1.1,0-2,0.4-2.7,1.2c-0.7,0.8-1.1,1.8-1.1,3.1C-271.3,286.4-271,287.3-270.3,288z"/>
		<path class="st3" d="M-246.9,295.5c0.8-0.7,1.2-1.6,1.2-2.6v-1.7c-0.4,0.6-1,1.1-1.7,1.4s-1.6,0.5-2.4,0.5c-2.3,0-4.1-0.8-5.5-2.3
			c-1.4-1.5-2.1-3.4-2.1-5.5c0-2.4,0.7-4.4,2.2-6c1.5-1.6,3.4-2.4,5.6-2.4c1.8,0,3.1,0.7,4.1,2.1l0.1-0.7c0.1-0.4,0.3-0.7,0.7-1
			c0.4-0.3,0.9-0.4,1.5-0.4c0.7,0,1.2,0.2,1.6,0.6c0.4,0.4,0.6,0.9,0.6,1.5c0,5-0.1,8.4-0.1,10.3l0,3.5c0,2.2-0.7,4.1-2.4,5.7
			c-1.6,1.6-3.7,2.3-6.2,2.3c-2.1,0-3.7-0.3-4.9-1c-1-0.5-1.4-1.2-1.4-2.1c0-0.6,0.2-1.2,0.6-1.6c0.4-0.5,0.9-0.7,1.4-0.7
			c0.2,0,0.7,0.1,1.6,0.4c0.9,0.3,1.8,0.5,2.6,0.5C-248.6,296.5-247.7,296.2-246.9,295.5z M-251.7,288c0.7,0.7,1.5,1.1,2.5,1.1
			c1,0,1.9-0.3,2.6-1c0.7-0.7,1.1-1.7,1.1-3c0-1.3-0.3-2.3-1-3c-0.7-0.7-1.5-1-2.5-1c-1.1,0-2,0.4-2.7,1.1c-0.7,0.8-1,1.8-1,3.1
			C-252.8,286.3-252.4,287.3-251.7,288z"/>
		<path class="st3" d="M-233.6,288.3c0.7,0.5,1.4,0.8,2.3,0.8c1.1,0,2-0.3,2.9-0.8c0.6-0.3,1.1-0.5,1.5-0.5c0.5,0,1,0.2,1.4,0.7
			s0.6,1,0.6,1.6c0,0.8-0.4,1.4-1.2,1.8c-1.3,0.8-3.2,1.3-5.5,1.3c-2.2,0-4-0.7-5.6-2.2c-1.5-1.5-2.3-3.3-2.3-5.4
			c0-2.4,0.8-4.5,2.3-6.1c1.6-1.6,3.5-2.5,5.7-2.5c2,0,3.7,0.6,5.1,1.9c1.4,1.3,2,2.8,2,4.4c0,1-0.2,1.8-0.5,2.2
			c-0.4,0.4-1.1,0.7-2.2,0.7c-1.4,0-4,0.1-7.7,0.1C-234.6,287.1-234.3,287.8-233.6,288.3z M-233.7,281.5c-0.6,0.6-1,1.2-1,2
			c1.9,0,3.8,0,5.6-0.1c0.3,0,0.4-0.1,0.4-0.2c0-0.7-0.3-1.3-0.8-1.8c-0.5-0.5-1.2-0.7-1.9-0.7
			C-232.3,280.6-233.1,280.9-233.7,281.5z"/>
		<path class="st3" d="M-224,279.2c0-0.6,0.2-1,0.5-1.4c0.3-0.4,0.8-0.5,1.3-0.5h1.4l0.1-2.1c0-1.8,0.9-2.6,2.5-2.6
			c1.3,0,1.9,0.7,1.9,2c0,0.4,0,1.3-0.1,2.8l2.5,0c1.3,0,1.9,0.7,1.9,2c0,0.6-0.1,1-0.4,1.4s-0.7,0.6-1.3,0.6h-2.7v5.2
			c0,1.7,0.5,2.6,1.5,2.6c0.3,0,0.5,0,0.8-0.1c0.3-0.1,0.5-0.1,0.7-0.1c0.5,0,0.9,0.2,1.2,0.6c0.3,0.4,0.5,0.8,0.5,1.3
			c0,0.9-0.3,1.6-0.9,2c-0.6,0.4-1.6,0.6-2.9,0.6c-3.5,0-5.3-2.1-5.3-6.3c0-0.6,0-1.6,0-2.8c0-1.3,0-2.2,0-2.8h-1.5
			C-223.4,281.2-224,280.5-224,279.2z"/>
		<path class="st4" d="M-209.4,288.6c1.5-3.2,2.5-5.7,3.2-7.4l4.1-10.1c0.2-0.5,0.6-0.9,1-1.2c0.5-0.3,1-0.4,1.6-0.4
			c1.5,0,2.4,0.6,2.9,1.7c0.2,0.4,1.6,4.1,4.4,11c0.1,0.1,0.2,0.3,0.3,0.6c0.1,0.3,0.2,0.5,0.3,0.6c1.3,3.1,2.1,5.2,2.6,6.2
			c0.3,0.6,0.4,1.1,0.4,1.5c0,0.5-0.3,1-0.8,1.4c-0.5,0.4-1.1,0.6-1.9,0.6c-1.1,0-1.8-0.5-2.2-1.5l-1.6-4c-0.4,0-2.2,0-5.3,0h-3.2
			l-1.5,3.9c-0.5,1.1-1.1,1.6-2.1,1.6c-0.8,0-1.4-0.2-2-0.5c-0.5-0.4-0.8-0.9-0.8-1.7C-210,290.2-209.8,289.5-209.4,288.6z
			 M-202.4,283.8c2.2,0,4.2,0,5.9-0.1c-0.1-0.3-0.5-1.6-1.3-3.9c-0.8-2.3-1.3-3.8-1.6-4.6C-199.6,276-200.6,278.8-202.4,283.8z"/>
		<path class="st4" d="M-186.8,272.6c-0.5-0.6-0.7-1.3-0.6-2.2c0.1-0.7,0.5-1.3,1.1-1.6c0.6-0.4,1.2-0.6,1.8-0.6
			c0.9,0,1.6,0.3,2.1,0.8c0.5,0.5,0.7,1.2,0.7,1.9c0,0.9-0.3,1.5-0.9,2c-0.6,0.4-1.3,0.7-2.2,0.7
			C-185.6,273.6-186.3,273.2-186.8,272.6z M-186.2,277.5c0.4-0.3,1-0.5,1.6-0.5c1.6,0,2.4,0.7,2.4,2.2c0,0.9,0,2.2,0,3.9
			c0,1.7,0,3,0,3.8l0,4.1c0,0.7-0.2,1.2-0.7,1.6c-0.4,0.4-1,0.5-1.7,0.5c-0.7,0-1.2-0.2-1.7-0.5c-0.4-0.3-0.7-0.8-0.7-1.4V279
			C-186.9,278.3-186.7,277.8-186.2,277.5z"/>
		<path class="st4" d="M-177.3,277c1,0,1.5,0.4,1.7,1.3l0.2,1.4c0.4-0.9,1-1.6,1.8-2.1c0.8-0.5,1.6-0.8,2.4-0.8
			c1.4,0,2.1,0.7,2.1,2.2c0,0.6-0.2,1.1-0.5,1.6c-0.3,0.4-0.8,0.7-1.4,0.7h-0.5c-1.1,0-2,0.4-2.6,1.2c-0.7,0.8-1,2-1,3.6
			c0,0.2,0,1,0.1,2.4c0,1.4,0,2.3,0,2.5c0,1.3-0.8,1.9-2.4,1.9c-0.8,0-1.3-0.2-1.7-0.5c-0.4-0.3-0.6-0.9-0.6-1.8
			c0-0.9,0-2.3,0.1-4.2c0-1.9,0.1-3.3,0.1-4c0-0.4,0-0.9,0-1.7c0-0.8,0-1.3,0-1.7C-179.6,277.8-178.8,277-177.3,277z"/>
		<path class="st3" d="M-171,292.4c-0.5-0.5-0.8-1.1-0.8-1.9c0-0.8,0.3-1.5,0.8-2c0.5-0.5,1.2-0.8,2-0.8c0.8,0,1.4,0.2,1.9,0.7
			c0.5,0.5,0.8,1.1,0.8,1.9c0,0.8-0.3,1.5-0.8,2c-0.5,0.5-1.2,0.8-2.1,0.8C-169.9,293.2-170.5,292.9-171,292.4z"/>
	</g>
	<rect x="-165.1" y="268.1" class="st5" width="73" height="26.9"/>
	<g class="st6">
		<path class="st3" d="M-150.3,279.9c0,1-0.8,2.3-2,2.3c-0.6,0-1.3-0.3-1.6-0.4c-0.5-0.2-1-0.3-1.7-0.3c-2.2,0-3.7,2.3-3.7,4.3
			c0,2.2,1.6,3.9,3.7,3.9c1,0,1.7-0.3,2.2-0.6c0.4-0.2,0.8-0.5,1.4-0.5c1.1,0,1.9,1.2,1.9,2.3c0,0.7-0.3,1.2-0.9,1.6
			c-1,0.8-2.5,1.4-4.9,1.4c-5.6,0-8.3-4.3-8.2-7.8c0-4.6,3.4-8.9,8.5-8.9c1.4,0,2.9,0.3,4.2,1.1
			C-150.6,278.7-150.3,279.2-150.3,279.9z"/>
		<path class="st3" d="M-139.8,277.3c4.6,0.7,6.6,4.5,6.6,8.1c0,4.9-3.7,8.4-8.6,8.4c-4.4,0-8.2-3.2-8.2-7.9c0-5.2,3.4-8.7,9.1-8.8
			C-140.5,277.1-140.1,277.2-139.8,277.3z M-141.5,281.3c-2.3,0.1-3.8,1.8-3.8,4.7c0,2.2,1.7,3.8,3.4,3.8c2.1,0,4-1.7,4-4.4
			C-138,283.3-139.3,281.3-141.5,281.3z"/>
		<path class="st3" d="M-132.7,291.1c0-1.6,1.2-2.8,2.9-2.8c1.5,0,2.8,1.1,2.8,2.7c0,1.7-1.2,2.8-3,2.8
			C-131.6,293.8-132.7,292.7-132.7,291.1z"/>
		<path class="st3" d="M-121,279.8v5.7c0,2.1,0.4,4.1,2.6,4.1c2.6,0,3.4-2,3.4-5.2l0-4.8c0-1.6,1.2-2.3,2.5-2.3
			c1.4,0,2.3,0.6,2.3,2.2c0,0.4-0.1,4.5,0,7.8c0,2.3,0.1,3.9,0.1,4.5c0,1.2-1.1,1.8-2.3,1.8c-1.2,0-1.9-0.5-2.1-1.4
			c-0.1-0.5,0-0.8-0.2-1.4c-1.1,1.9-2.8,3-4.8,3c-4.5,0-6.4-3.1-6.4-7.5c0-2,0-4.7,0-6.6c0-1.7,1.1-2.3,2.7-2.3
			C-121.7,277.4-121,278.1-121,279.8z"/>
		<path class="st3" d="M-93.8,290.1c0.4,0.5,0.6,0.8,0.6,1.3c0,1.1-1.2,2.2-2.5,2.2c-0.7,0-1.3-0.4-1.9-1.2l-4.2-5.3
			c-0.2,0.2-1,1-1.2,1.2l0,3.2c0,1.3-0.7,2.2-2.3,2.2c-1.5,0-2.4-0.8-2.4-2.3l0.1-3.6c0-5.3,0-10,0-15.4c0-0.6,0-1.7,0-2.3
			c0-1.4,1.2-2.1,2.4-2.1c1.4,0,2.4,0.6,2.4,2.1c0,4.4-0.1,8.9-0.1,13.3l5.1-5.2c0.6-0.6,1.2-1,1.9-1c1.1,0,2.3,1.2,2.3,2.3
			c0,0.6-0.3,1-0.7,1.4c-1.3,1.3-3.1,2.9-4.1,3.9L-93.8,290.1z"/>
	</g>
</g>
<g id="Layer_3">
</g>
</svg>
