<svg data-name="Layer 1" xmlns="http://www.w3.org/2000/svg" viewBox="0 0 20 20"><path d="M16.1 3.9a8.63 8.63 0 100 12.2 8.62 8.62 0 000-12.2zm-.36 11a7.94 7.94 0 00-1.29-.95 13.89 13.89 0 00.55-3.4h2.54a7.42 7.42 0 01-1.8 4.32zM2.49 10.55H5a13.89 13.89 0 00.52 3.37 7.94 7.94 0 00-1.29.95 7.42 7.42 0 01-1.74-4.32zm1.77-5.42a7.94 7.94 0 001.29 1A13.89 13.89 0 005 9.45H2.49a7.42 7.42 0 011.77-4.32zM9.45 6.2a7.66 7.66 0 01-2.56-.65c.46-1.2 1.32-2.64 2.56-3zm0 1.1v2.15H6.13a13.5 13.5 0 01.41-2.85 8.8 8.8 0 002.91.7zm0 3.25v2.15a8.8 8.8 0 00-2.91.7 13.5 13.5 0 01-.41-2.85zm0 3.25v3.65c-1.24-.36-2.1-1.8-2.56-3a7.66 7.66 0 012.56-.65zm1.1 0a7.66 7.66 0 012.56.65c-.46 1.2-1.32 2.64-2.56 3zm0-1.1v-2.15h3.32a13.5 13.5 0 01-.41 2.85 8.8 8.8 0 00-2.91-.7zm0-3.25V7.3a8.8 8.8 0 002.91-.7 13.5 13.5 0 01.41 2.85zm0-3.25V2.55c1.24.36 2.1 1.8 2.56 3a7.66 7.66 0 01-2.56.65zM13 3.1a7.58 7.58 0 012 1.24 7.14 7.14 0 01-.89.67A8.31 8.31 0 0013 3.1zM5.92 5A7.14 7.14 0 015 4.34 7.58 7.58 0 017 3.1 8.31 8.31 0 005.92 5zm0 10A8.31 8.31 0 007 16.9a7.58 7.58 0 01-2-1.24 7.14 7.14 0 01.92-.66zm8.16 0a7.14 7.14 0 01.89.67 7.58 7.58 0 01-2 1.24A8.31 8.31 0 0014.08 15zM15 9.45a13.89 13.89 0 00-.52-3.37 7.94 7.94 0 001.29-1 7.42 7.42 0 011.77 4.32z" data-name="Header-&amp;-Header-states"/></svg>